<svg width="59" height="21" viewBox="0 0 59 21" fill="none" xmlns="http://www.w3.org/2000/svg">
<path d="M5.40833 5.06789H7.43669L6.42277 2.50244L5.40833 5.06789Z" fill="#4D4D4D"/>
<path d="M16.1953 13.6797V14.871H19.6067V16.154H16.1953V17.5287H19.9753L21.727 15.6041L20.0676 13.6797H16.1953Z" fill="#4D4D4D"/>
<path d="M42.8396 2.50244L41.7332 5.06789H43.8539L42.8396 2.50244Z" fill="#4D4D4D"/>
<path d="M26.0603 18.2604V13.0381L23.6631 15.6037L26.0603 18.2604Z" fill="#4D4D4D"/>
<path d="M30.578 14.5047C30.4857 13.9549 30.1166 13.6797 29.5631 13.6797H27.6274V15.3288H29.6559C30.209 15.329 30.578 15.0543 30.578 14.5047Z" fill="#4D4D4D"/>
<path d="M37.0311 15.1464C37.2155 15.0546 37.3081 14.7794 37.3081 14.5051C37.4004 14.1389 37.2155 13.9554 37.0311 13.8637C36.8472 13.772 36.5702 13.772 36.294 13.772H34.4497V15.2381H36.2939C36.5701 15.2381 36.8471 15.2381 37.0311 15.1464Z" fill="#4D4D4D"/>
<path d="M50.307 0.120605V1.22005L49.7542 0.120605H45.4214V1.22005L44.868 0.120605H38.9674C37.9534 0.120605 37.1232 0.304022 36.386 0.670458V0.120605H32.2374V0.212313V0.670458C31.7766 0.304154 31.2234 0.120605 30.4858 0.120605H15.6423L14.6277 2.4112L13.6138 0.120605H10.295H8.91191V1.22005L8.45089 0.120605H8.35861H4.3943L2.5501 4.42666L0.42985 9.09929L0.390869 9.19113H0.42985H5.1319H5.19076L5.22418 9.09929L5.77761 7.72525H6.97609L7.52926 9.19113H12.8761V9.09929V8.09169L13.3374 9.191H16.0108L16.4715 8.09169V9.09929V9.19113H18.5921H29.1946H29.2869V6.80883H29.4717C29.6559 6.80883 29.6559 6.80883 29.6559 7.08382V9.09942H36.294V8.5497C36.8472 8.82496 37.6764 9.09942 38.7829 9.09942H41.5491L42.1023 7.63381H43.3926L43.9458 9.09942H49.2929V8.1834V7.72538L50.123 9.09942H50.307H50.3995H54.4561V0.120605H50.3072H50.307ZM19.0533 7.81709H18.1312H17.5781V7.26777V2.77776L17.4859 2.98793V2.98543L15.3411 7.81709H15.2732H14.7801H13.9823L11.7698 2.77776V7.81709H8.63533L7.99001 6.44279H4.85505L4.2096 7.81709H2.58895L5.31633 1.40346H7.62101L10.2024 7.54197V1.40346H10.7554H12.645L12.6885 1.4953H12.6917L13.8549 4.01121L14.6902 5.89623L14.7198 5.80123L16.5636 1.40359H19.0532V7.81709H19.0533ZM25.415 2.77776H21.8193V3.96878H25.3227V5.25137H21.8193V6.5345H25.415V7.9084H20.2521V1.40359H25.415V2.77776ZM31.9908 5.1403C31.9932 5.14241 31.9963 5.14386 31.9992 5.14583C32.034 5.18246 32.0639 5.21923 32.0893 5.25441C32.2659 5.48447 32.4087 5.82666 32.4159 6.32842C32.4164 6.33711 32.4168 6.34568 32.4174 6.35437C32.4174 6.35938 32.4183 6.36373 32.4183 6.36887C32.4183 6.37177 32.418 6.37401 32.418 6.37677C32.4201 6.42724 32.4215 6.47876 32.4215 6.5345V7.81722H31.0388V7.08395C31.0388 6.71752 31.0388 6.16766 30.7618 5.80123C30.6747 5.71466 30.5866 5.65761 30.4906 5.61702C30.3524 5.52808 30.0905 5.52663 29.6559 5.52663H27.9959V7.81722H26.4289V1.40359H29.9326C30.7618 1.40359 31.3153 1.40359 31.7764 1.67845C32.2282 1.94804 32.501 2.39512 32.5114 3.10309C32.49 4.07815 31.8602 4.61311 31.4074 4.7935C31.4074 4.7935 31.715 4.85503 31.9908 5.1403ZM35.0954 7.81709H33.5279V1.40346H35.0954V7.81709ZM53.0736 7.81709H51.0449L48.0948 2.96092V6.99225L48.0851 6.98276V7.82104H46.5276V7.81722H44.9601L44.407 6.44292H41.1798L40.6267 7.90853H38.875C38.138 7.90853 37.2154 7.72551 36.6625 7.17579C36.1093 6.62607 35.833 5.89307 35.833 4.70218C35.833 3.78602 36.0172 2.86921 36.6625 2.13647C37.1231 1.58635 37.9533 1.40359 38.9672 1.40359H40.4426V2.77776H38.9672C38.414 2.77776 38.138 2.86908 37.7684 3.14446C37.4924 3.41919 37.3078 3.96878 37.3078 4.61008C37.3078 5.34322 37.4001 5.80123 37.7684 6.16767C38.0457 6.44292 38.4142 6.53463 38.875 6.53463H39.5204L41.6406 1.49557H42.563H43.9457L46.5275 7.63407V7.321V5.25164V5.06862V1.4957H48.8322L51.5053 5.98491V1.4957H53.0733V7.81735H53.0736V7.81709Z" fill="#4D4D4D"/>
<path d="M30.6762 4.07381C30.7031 4.04522 30.7275 4.01281 30.7482 3.97565C30.8317 3.84428 30.9274 3.60763 30.8758 3.28468C30.8737 3.25503 30.8683 3.22762 30.8619 3.20114C30.8602 3.19376 30.8605 3.1873 30.8585 3.17992L30.8576 3.18005C30.8117 3.02312 30.6946 2.92667 30.5778 2.86817C30.393 2.77686 30.1164 2.77686 29.8399 2.77686H27.9957V4.243H29.8399C30.1164 4.243 30.3931 4.243 30.5778 4.15116C30.6055 4.13719 30.6302 4.11822 30.6539 4.09674L30.6542 4.09792C30.6543 4.09779 30.6637 4.08804 30.6762 4.07381Z" fill="#4D4D4D"/>
<path d="M58.5127 16.979C58.5127 16.3377 58.3286 15.6961 58.0521 15.2381V11.1154H58.0479V10.8401C58.0479 10.8401 54.1835 10.8401 53.6083 10.8401C53.0334 10.8401 52.3357 11.3897 52.3357 11.3897V10.8401H48.095C47.4493 10.8401 46.62 11.0235 46.2508 11.3897V10.8401H38.691V11.1154V11.3896C38.1383 10.9318 37.1233 10.84 36.6627 10.84H31.684V11.1152V11.3894C31.2231 10.9317 30.1163 10.8398 29.5629 10.8398H24.032L22.741 12.2143L21.5423 10.8398H21.1564H20.5283H13.2451V11.1151V11.8389V20.094H21.3583L22.6914 18.7689L23.8469 20.094H23.9394H28.6143H28.8262H28.9185H29.0102V19.1779V17.9869H29.4715C30.1163 17.9869 30.9464 17.9869 31.5918 17.7116V20.0019V20.1856H35.7406V20.0019V17.8033H35.9245C36.2015 17.8033 36.2015 17.8033 36.2015 18.0782V20.0019V20.1856H48.7396C49.57 20.1856 50.3993 20.0019 50.8601 19.6355V20.0019V20.1856H54.8249C55.6541 20.1856 56.4845 20.094 57.0377 19.7273C57.8865 19.2212 58.4215 18.3254 58.5011 17.2569C58.5048 17.2253 58.5094 17.1936 58.5123 17.1619L58.5069 17.1568C58.5103 17.0975 58.5127 17.0388 58.5127 16.979ZM29.4716 16.4294H27.6273V16.7036V17.2536V17.8035V18.8113H24.597L22.8332 16.7955L22.8271 16.8022L22.741 16.7036L20.7127 18.8113H14.8123V12.398H20.805L22.4422 14.1801L22.7864 14.5532L22.8331 14.5051L24.7695 12.3981H29.6557C30.604 12.3981 31.6659 12.6307 32.0683 13.5895C32.1167 13.7794 32.1448 13.9905 32.1448 14.2303C32.1448 16.0626 30.854 16.4294 29.4716 16.4294ZM38.691 16.3376C38.8752 16.6118 38.9675 16.9789 38.9675 17.5289V18.8112H37.4004V17.9869C37.4004 17.6198 37.4004 16.9789 37.1234 16.7036C36.9395 16.4294 36.5702 16.4294 36.0175 16.4294H34.3581V18.8113H32.7909V12.3062H36.2941C37.0311 12.3062 37.6764 12.3062 38.1383 12.5808C38.5989 12.856 38.9675 13.3141 38.9675 14.0471C38.9675 15.0547 38.3224 15.6044 37.8613 15.788C38.3224 15.9705 38.5989 16.1543 38.691 16.3376ZM45.0527 13.68H41.4566V14.8712H44.9602V16.1542H41.4566V17.437H45.0527V18.8112H39.8898V12.3061H45.0527V13.68ZM48.9246 18.8113H45.9742V17.4371H48.9246C49.2006 17.4371 49.3855 17.4371 49.5703 17.2537C49.6626 17.1619 49.7542 16.979 49.7542 16.7956C49.7542 16.6119 49.6626 16.4295 49.5703 16.3377C49.4778 16.2461 49.2931 16.1544 49.0166 16.1544C47.5414 16.0627 45.7898 16.1544 45.7898 14.139C45.7898 13.2227 46.3429 12.2147 48.0026 12.2147H51.0448V13.772H48.187C47.9105 13.772 47.7258 13.772 47.5413 13.8637C47.3574 13.9555 47.3574 14.139 47.3574 14.322C47.3574 14.597 47.5413 14.6887 47.7257 14.7796C47.9105 14.8714 48.0947 14.8714 48.2789 14.8714H49.1088C49.9386 14.8714 50.4917 15.0547 50.8604 15.4213C51.1371 15.6963 51.3216 16.1544 51.3216 16.7956C51.3216 18.1695 50.4918 18.8113 48.9246 18.8113ZM56.8534 18.1695C56.485 18.5365 55.8393 18.8113 54.917 18.8113H51.9674V17.4371H54.9169C55.1936 17.4371 55.3784 17.4371 55.5626 17.2537C55.6545 17.1619 55.747 16.979 55.747 16.7956C55.747 16.6119 55.6545 16.4295 55.5626 16.3377C55.4703 16.2461 55.2861 16.1544 55.0094 16.1544C53.5348 16.0627 51.7826 16.1544 51.7826 14.1391C51.7826 13.2683 52.2839 12.4816 53.5203 12.248C53.6681 12.2277 53.8243 12.2147 53.9954 12.2147H57.0381V13.772H55.0094H54.2721H54.1798C53.9031 13.772 53.7189 13.772 53.5348 13.8637C53.4419 13.9555 53.3497 14.139 53.3497 14.322C53.3497 14.597 53.4419 14.6887 53.7189 14.7796C53.9031 14.8714 54.0875 14.8714 54.2721 14.8714H54.3637H55.1016C55.5045 14.8714 55.8092 14.9208 56.088 15.0182C56.3434 15.1101 57.1888 15.4858 57.3779 16.4668C57.3943 16.5696 57.4064 16.6769 57.4064 16.7956C57.4064 17.3454 57.222 17.8035 56.8534 18.1695Z" fill="#4D4D4D"/>
</svg>
