<svg width="59" height="16" viewBox="0 0 59 16" fill="none" xmlns="http://www.w3.org/2000/svg">
<path d="M11.2913 15.4334C15.4286 15.4533 19.2052 12.1095 19.2052 8.04172C19.2052 3.59373 15.4286 0.519233 11.2913 0.520508H7.7308C3.54394 0.519233 0.0976868 3.59446 0.0976868 8.04172C0.0976868 12.1105 3.54394 15.4533 7.7308 15.4334H11.2913Z" fill="#4D4D4D"/>
<path d="M9.31855 12.0017V3.9245C10.9665 4.5473 12.1364 6.11916 12.1392 7.96281C12.1364 9.80681 10.9665 11.3778 9.31855 12.0017ZM3.35633 7.96281C3.36003 6.12026 4.52807 4.5493 6.17512 3.92468V12C4.52807 11.3759 3.36003 9.8059 3.35633 7.96281ZM7.74711 1.13599C3.92131 1.13726 0.821145 4.19245 0.820221 7.96281C0.821145 11.7328 3.92131 14.7874 7.74711 14.7885C11.5742 14.7874 14.6749 11.7328 14.6755 7.96281C14.6749 4.19245 11.5742 1.13726 7.74711 1.13599Z" fill="white"/>
<path d="M21.6312 3.72803C21.6312 3.0227 21.2576 3.06897 20.8997 3.0615V2.85766C21.2099 2.8726 21.528 2.8726 21.839 2.8726C22.1731 2.8726 22.6269 2.85766 23.2163 2.85766C25.2775 2.85766 26.3997 4.21403 26.3997 5.603C26.3997 6.37955 25.9384 8.33231 23.1204 8.33231C22.7148 8.33231 22.34 8.31682 21.9662 8.31682C21.6083 8.31682 21.2576 8.32429 20.8997 8.33231V8.12829C21.3768 8.08111 21.6083 8.06544 21.6312 7.53208V3.72803ZM22.4114 7.40675C22.4114 8.01061 22.8497 8.08111 23.2394 8.08111C24.9591 8.08111 25.5239 6.80271 25.5239 5.63397C25.5239 4.16776 24.5687 3.10904 23.0326 3.10904C22.7057 3.10904 22.5554 3.132 22.4114 3.14038V7.40675ZM26.6788 8.12847H26.8299C27.0525 8.12847 27.2118 8.12847 27.2118 7.86907V5.74399C27.2118 5.39916 27.0926 5.35126 26.7977 5.19533V5.06964C27.1719 4.95925 27.618 4.81097 27.6494 4.78747C27.7054 4.75614 27.753 4.74776 27.7929 4.74776C27.8323 4.74776 27.8487 4.79494 27.8487 4.85815V7.86907C27.8487 8.12847 28.0238 8.12847 28.2469 8.12847H28.3819V8.33249C28.1111 8.33249 27.8323 8.31682 27.5465 8.31682C27.2597 8.31682 26.973 8.32448 26.6788 8.33249V8.12847ZM27.5306 3.54022C27.3231 3.54022 27.1405 3.35205 27.1405 3.14803C27.1405 2.95166 27.3318 2.77077 27.5306 2.77077C27.7369 2.77077 27.9205 2.93617 27.9205 3.14803C27.9205 3.36006 27.745 3.54022 27.5306 3.54022ZM29.1382 5.79081C29.1382 5.50081 29.0502 5.42266 28.677 5.27365V5.12465C29.0188 5.01499 29.3449 4.91261 29.7274 4.74776C29.7511 4.74776 29.7744 4.76379 29.7744 4.82609V5.33614C30.2288 5.01499 30.6191 4.74776 31.153 4.74776C31.8291 4.74776 32.0678 5.23413 32.0678 5.846V7.86907C32.0678 8.12847 32.2426 8.12847 32.4658 8.12847H32.6091V8.33249C32.3299 8.33249 32.0513 8.31682 31.7655 8.31682C31.4786 8.31682 31.1918 8.32448 30.9054 8.33249V8.12847H31.0485C31.2719 8.12847 31.4303 8.12847 31.4303 7.86907V5.83835C31.4303 5.39078 31.153 5.17165 30.6986 5.17165C30.444 5.17165 30.038 5.3753 29.7744 5.54799V7.86907C29.7744 8.12847 29.9506 8.12847 30.1735 8.12847H30.3166V8.33249C30.038 8.33249 29.759 8.31682 29.4725 8.31682C29.1863 8.31682 28.8992 8.32448 28.613 8.33249V8.12847H28.7566C28.9794 8.12847 29.1382 8.12847 29.1382 7.86907V5.79081ZM33.2143 6.16788C33.1979 6.23856 33.1979 6.35587 33.2143 6.62273C33.2611 7.36759 33.7481 7.9791 34.3839 7.9791C34.8224 7.9791 35.1651 7.74375 35.4589 7.45393L35.5702 7.56377C35.204 8.04231 34.7501 8.44998 34.0981 8.44998C32.8318 8.44998 32.5775 7.2419 32.5775 6.74023C32.5775 5.20279 33.6277 4.74776 34.1846 4.74776C34.83 4.74776 35.5231 5.1476 35.5301 5.97898C35.5301 6.02671 35.5301 6.07316 35.5231 6.1207L35.4508 6.16788H33.2143ZM34.6235 5.91668C34.8224 5.91668 34.8455 5.81449 34.8455 5.72049C34.8455 5.32065 34.5991 4.99914 34.153 4.99914C33.6677 4.99914 33.3334 5.35126 33.238 5.91668H34.6235ZM35.7137 8.12847H35.9287C36.1507 8.12847 36.3101 8.12847 36.3101 7.86907V5.66566C36.3101 5.42266 36.0159 5.3753 35.8963 5.31264V5.19533C36.4774 4.95196 36.7959 4.74776 36.8686 4.74776C36.9154 4.74776 36.939 4.77126 36.939 4.85013V5.55582H36.956C37.1542 5.24997 37.4892 4.74776 37.9745 4.74776C38.1736 4.74776 38.428 4.88092 38.428 5.16345C38.428 5.3753 38.2771 5.56402 38.0544 5.56402C37.8066 5.56402 37.8066 5.3753 37.5284 5.3753C37.3929 5.3753 36.9473 5.55582 36.9473 6.02671V7.86907C36.9473 8.12847 37.1061 8.12847 37.3293 8.12847H37.7748V8.33249C37.3369 8.32448 37.0037 8.31682 36.661 8.31682C36.3347 8.31682 36.0002 8.32448 35.7137 8.33249V8.12847ZM38.7782 7.2419C38.8819 7.75941 39.2 8.19897 39.7815 8.19897C40.2503 8.19897 40.4254 7.91662 40.4254 7.64228C40.4254 6.71655 38.6907 7.01438 38.6907 5.75201C38.6907 5.31245 39.0494 4.74776 39.9246 4.74776C40.179 4.74776 40.5212 4.81862 40.8314 4.97564L40.8876 5.77496H40.7044C40.6249 5.28131 40.3464 4.99896 39.8367 4.99896C39.518 4.99896 39.2159 5.1793 39.2159 5.51647C39.2159 6.43474 41.0627 6.15185 41.0627 7.38307C41.0627 7.90059 40.6408 8.45017 39.6933 8.45017C39.3749 8.45017 39.0007 8.34014 38.7225 8.18348L38.6347 7.28143L38.7782 7.2419ZM48.2504 4.27706H48.0518C47.9002 3.36006 47.2395 2.991 46.3484 2.991C45.4325 2.991 44.1029 3.59468 44.1029 5.47695C44.1029 7.0621 45.2501 8.19897 46.4754 8.19897C47.2632 8.19897 47.9165 7.66578 48.0759 6.84187L48.2585 6.88887L48.0759 8.03393C47.7414 8.2385 46.8418 8.44998 46.3161 8.44998C44.454 8.44998 43.2762 7.26558 43.2762 5.50081C43.2762 3.89288 44.7324 2.73962 46.2926 2.73962C46.937 2.73962 47.5582 2.94419 48.1709 3.15604L48.2504 4.27706ZM48.5375 8.12847H48.688C48.9115 8.12847 49.0709 8.12847 49.0709 7.86907V3.50124C49.0709 2.991 48.9514 2.97534 48.649 2.88918V2.76367C48.9672 2.66184 49.3016 2.52067 49.4687 2.42613C49.5556 2.37949 49.6198 2.3396 49.6432 2.3396C49.6917 2.3396 49.7078 2.38714 49.7078 2.44999V7.86907C49.7078 8.12847 49.8827 8.12847 50.1058 8.12847H50.2402V8.33249C49.9705 8.33249 49.6917 8.31682 49.4051 8.31682C49.1188 8.31682 48.8322 8.32448 48.5375 8.33249V8.12847ZM53.6484 7.90059C53.6484 8.04231 53.7356 8.04978 53.8708 8.04978C53.9665 8.04978 54.0854 8.04231 54.1893 8.04231V8.20735C53.8466 8.2385 53.1941 8.40317 53.0427 8.45017L53.0026 8.42649V7.79147C52.5258 8.17565 52.159 8.45017 51.5933 8.45017C51.1638 8.45017 50.7181 8.17565 50.7181 7.51714V5.50882C50.7181 5.3048 50.6865 5.10862 50.2411 5.06964V4.92045C50.5281 4.9128 51.1638 4.8658 51.2677 4.8658C51.3559 4.8658 51.3559 4.92045 51.3559 5.09313V7.11621C51.3559 7.35192 51.3559 8.02628 52.0479 8.02628C52.3186 8.02628 52.6767 7.82244 53.0106 7.54847V5.43778C53.0106 5.28131 52.6288 5.19533 52.3428 5.11681V4.97564C53.0584 4.92828 53.5049 4.8658 53.584 4.8658C53.6484 4.8658 53.6484 4.92045 53.6484 5.00715V7.90059ZM55.2322 5.31264C55.5502 5.04595 55.9802 4.74776 56.4184 4.74776C57.3418 4.74776 57.8983 5.54052 57.8983 6.39503C57.8983 7.42242 57.1346 8.45017 55.9955 8.45017C55.4071 8.45017 55.0967 8.26163 54.8894 8.17565L54.651 8.35563L54.4844 8.26965C54.5548 7.80696 54.5955 7.35192 54.5955 6.87357V3.50124C54.5955 2.991 54.4755 2.97534 54.1732 2.88918V2.76367C54.4923 2.66184 54.8258 2.52067 54.9933 2.42613C55.0808 2.37949 55.144 2.3396 55.1688 2.3396C55.2165 2.3396 55.2322 2.38714 55.2322 2.44999V5.31264ZM55.2322 7.44573C55.2322 7.74375 55.5186 8.24633 56.0519 8.24633C56.9038 8.24633 57.2618 7.42242 57.2618 6.72401C57.2618 5.87715 56.6097 5.17165 55.9885 5.17165C55.6933 5.17165 55.447 5.36 55.2322 5.54052V7.44573ZM20.8906 12.8925H20.9516C21.1073 12.8925 21.2718 12.8717 21.2718 12.6495V10.4139C21.2718 10.1913 21.1073 10.1701 20.9516 10.1701H20.8906V10.0421C21.0596 10.0421 21.3195 10.0588 21.5323 10.0588C21.7486 10.0588 22.0082 10.0421 22.2117 10.0421V10.1701H22.1509C21.9956 10.1701 21.8307 10.1913 21.8307 10.4139V12.6495C21.8307 12.8717 21.9956 12.8925 22.1509 12.8925H22.2117V13.0211C22.0039 13.0211 21.7434 13.0044 21.5277 13.0044C21.3153 13.0044 21.0596 13.0211 20.8906 13.0211V12.8925ZM25.1875 12.1799L25.1961 12.1715V10.5714C25.1961 10.2213 24.949 10.1701 24.8192 10.1701H24.7238V10.0421C24.9275 10.0421 25.1268 10.059 25.3302 10.059C25.5077 10.059 25.6859 10.0421 25.863 10.0421V10.1701H25.7985C25.616 10.1701 25.4124 10.2044 25.4124 10.7121V12.6542C25.4124 12.8034 25.4169 12.9526 25.4381 13.0849H25.2736L23.0433 10.635V12.3936C23.0433 12.7648 23.1163 12.8925 23.4502 12.8925H23.5236V13.0211C23.3376 13.0211 23.1516 13.0044 22.9651 13.0044C22.7708 13.0044 22.5713 13.0211 22.3762 13.0211V12.8925H22.4369C22.7356 12.8925 22.8264 12.6923 22.8264 12.3513V10.5538C22.8264 10.3151 22.6268 10.1701 22.4326 10.1701H22.3762V10.0421C22.5406 10.0421 22.7096 10.059 22.8737 10.059C23.0039 10.059 23.1298 10.0421 23.2596 10.0421L25.1875 12.1799ZM26.5117 10.2554C26.1863 10.2554 26.1741 10.3322 26.1091 10.6434H25.9793C25.9961 10.5241 26.0181 10.4047 26.0312 10.2807C26.0488 10.161 26.0571 10.0421 26.0571 9.91838H26.161C26.1959 10.0466 26.3041 10.0421 26.4217 10.0421H28.6559C28.7731 10.0421 28.8811 10.0379 28.8901 9.90963L28.9935 9.92676C28.9766 10.0421 28.9591 10.157 28.946 10.2725C28.938 10.3878 28.938 10.5031 28.938 10.6181L28.8079 10.6654C28.799 10.5077 28.7772 10.2554 28.4873 10.2554H27.777V12.5258C27.777 12.855 27.9288 12.8925 28.1362 12.8925H28.2185V13.0211C28.0497 13.0211 27.7463 13.0044 27.5128 13.0044C27.2529 13.0044 26.9495 13.0211 26.7803 13.0211V12.8925H26.8626C27.1016 12.8925 27.2222 12.8716 27.2222 12.5347V10.2554H26.5117ZM29.1319 12.8925H29.1928C29.3486 12.8925 29.5133 12.8717 29.5133 12.6495V10.4139C29.5133 10.1913 29.3486 10.1701 29.1928 10.1701H29.1319V10.0421C29.3956 10.0421 29.847 10.0588 30.2101 10.0588C30.5745 10.0588 31.0243 10.0421 31.3186 10.0421C31.3112 10.2253 31.3155 10.5075 31.3281 10.6951L31.1976 10.7294C31.1767 10.4521 31.1249 10.2302 30.6697 10.2302H30.0683V11.348H30.583C30.8428 11.348 30.8995 11.2033 30.9252 10.9724H31.0548C31.0463 11.1392 31.0419 11.3055 31.0419 11.4717C31.0419 11.6343 31.0463 11.7963 31.0548 11.9584L30.9252 11.9837C30.8995 11.728 30.8864 11.5615 30.5871 11.5615H30.0683V12.5557C30.0683 12.8331 30.3185 12.8331 30.5958 12.8331C31.1158 12.8331 31.3451 12.7987 31.4752 12.3129L31.5963 12.3422C31.5398 12.569 31.488 12.7945 31.4495 13.0211C31.1719 13.0211 30.6738 13.0044 30.2845 13.0044C29.8942 13.0044 29.3788 13.0211 29.1319 13.0211V12.8925ZM32.1809 10.4942C32.1809 10.1829 32.0077 10.1701 31.8731 10.1701H31.7951V10.0419C31.9337 10.0419 32.2022 10.059 32.4665 10.059C32.7261 10.059 32.9343 10.0419 33.1637 10.0419C33.7091 10.0419 34.1947 10.1869 34.1947 10.7935C34.1947 11.1769 33.935 11.4117 33.5928 11.5447L34.3332 12.6364C34.4547 12.8169 34.5408 12.8676 34.7534 12.8923V13.0211C34.6103 13.0211 34.4717 13.0044 34.329 13.0044C34.1947 13.0044 34.0557 13.0211 33.922 13.0211C33.5885 12.5901 33.302 12.1293 33.0208 11.6378H32.7355V12.5515C32.7355 12.8805 32.891 12.8923 33.0899 12.8923H33.1681V13.0211C32.9208 13.0211 32.6704 13.0044 32.4233 13.0044C32.2151 13.0044 32.0116 13.0211 31.7951 13.0211V12.8923H31.8731C32.0339 12.8923 32.1809 12.8207 32.1809 12.6626V10.4942ZM32.7355 11.484H32.947C33.3806 11.484 33.6139 11.3223 33.6139 10.8184C33.6139 10.4392 33.3672 10.1958 32.9814 10.1958C32.8513 10.1958 32.7958 10.2089 32.7355 10.2127V11.484ZM37.694 12.1799L37.7018 12.1715V10.5714C37.7018 10.2213 37.4554 10.1701 37.3256 10.1701H37.2306V10.0421C37.4341 10.0421 37.6327 10.059 37.8368 10.059C38.0146 10.059 38.1914 10.0421 38.3703 10.0421V10.1701H38.3049C38.1231 10.1701 37.9194 10.2044 37.9194 10.7121V12.6542C37.9194 12.8034 37.9235 12.9526 37.9449 13.0849H37.7808L35.5502 10.635V12.3936C35.5502 12.7648 35.6236 12.8925 35.9572 12.8925H36.0307V13.0211C35.8447 13.0211 35.6584 13.0044 35.4724 13.0044C35.2768 13.0044 35.0777 13.0211 34.883 13.0211V12.8925H34.9431C35.2424 12.8925 35.3334 12.6923 35.3334 12.3513V10.5538C35.3334 10.3151 35.1341 10.1701 34.9394 10.1701H34.883V10.0421C35.047 10.0421 35.2167 10.059 35.3813 10.059C35.5101 10.059 35.6362 10.0421 35.7665 10.0421L37.694 12.1799ZM39.0667 12.4109C39.0227 12.5557 38.9706 12.6674 38.9706 12.7435C38.9706 12.8717 39.1527 12.8925 39.2952 12.8925H39.3437V13.0211C39.1701 13.0118 38.9932 13.0045 38.8186 13.0045C38.663 13.0045 38.5081 13.0118 38.3515 13.0211V12.8925H38.3777C38.5465 12.8925 38.6898 12.7945 38.7538 12.6149L39.4476 10.6569C39.5032 10.4989 39.582 10.2854 39.6081 10.127C39.746 10.0807 39.9196 9.99543 40.0018 9.94406C40.0152 9.93951 40.0227 9.93514 40.0364 9.93514C40.0494 9.93514 40.0573 9.93514 40.0671 9.94825C40.08 9.98232 40.0922 10.0208 40.1063 10.0548L40.9031 12.287C40.9549 12.4362 41.0065 12.5939 41.0625 12.7226C41.115 12.8421 41.2059 12.8925 41.349 12.8925H41.3749V13.0211C41.18 13.0118 40.9848 13.0045 40.7774 13.0045C40.5653 13.0045 40.3481 13.0118 40.1272 13.0211V12.8925H40.1753C40.2743 12.8925 40.4439 12.8759 40.4439 12.769C40.4439 12.7138 40.4049 12.5987 40.3564 12.4617L40.188 11.9668H39.2048L39.0667 12.4109ZM39.6988 10.5201H39.69L39.2871 11.728H40.0965L39.6988 10.5201ZM41.5655 10.2554C41.2405 10.2554 41.2276 10.3322 41.1625 10.6434H41.0323C41.0493 10.5241 41.0713 10.4047 41.0848 10.2807C41.102 10.161 41.1102 10.0421 41.1102 9.91838H41.2146C41.249 10.0466 41.3577 10.0421 41.4742 10.0421H43.7095C43.826 10.0421 43.9341 10.0379 43.943 9.90963L44.0467 9.92676C44.0301 10.0421 44.0127 10.157 43.9998 10.2725C43.9901 10.3878 43.9901 10.5031 43.9901 10.6181L43.8605 10.6654C43.8526 10.5077 43.8308 10.2554 43.5405 10.2554H42.8301V12.5258C42.8301 12.855 42.982 12.8925 43.1895 12.8925H43.2719V13.0211C43.1029 13.0211 42.7999 13.0044 42.5659 13.0044C42.3065 13.0044 42.0026 13.0211 41.8338 13.0211V12.8925H41.916C42.1547 12.8925 42.2758 12.8716 42.2758 12.5347V10.2554H41.5655ZM44.2065 12.8925H44.2671C44.4235 12.8925 44.5873 12.8717 44.5873 12.6495V10.4139C44.5873 10.1913 44.4235 10.1701 44.2671 10.1701H44.2065V10.0421C44.3758 10.0421 44.6352 10.0588 44.847 10.0588C45.0643 10.0588 45.324 10.0421 45.5279 10.0421V10.1701H45.4673C45.3111 10.1701 45.1462 10.1913 45.1462 10.4139V12.6495C45.1462 12.8717 45.3111 12.8925 45.4673 12.8925H45.5279V13.0211C45.3198 13.0211 45.0598 13.0044 44.8435 13.0044C44.6309 13.0044 44.3758 13.0211 44.2065 13.0211V12.8925ZM47.2552 9.97831C48.1787 9.97831 48.9145 10.5419 48.9145 11.4509C48.9145 12.4326 48.1997 13.0851 47.2776 13.0851C46.3586 13.0851 45.6573 12.4706 45.6573 11.5531C45.6573 10.6656 46.3545 9.97831 47.2552 9.97831ZM47.3207 12.8972C48.1611 12.8972 48.3073 12.167 48.3073 11.5449C48.3073 10.9208 47.9662 10.1658 47.2469 10.1658C46.4887 10.1658 46.2637 10.8317 46.2637 11.403C46.2637 12.167 46.6189 12.8972 47.3207 12.8972ZM51.8331 12.1799L51.842 12.1715V10.5714C51.842 10.2213 51.5944 10.1701 51.4644 10.1701H51.3705V10.0421C51.5733 10.0421 51.7728 10.059 51.9756 10.059C52.154 10.059 52.3315 10.0421 52.5094 10.0421V10.1701H52.4439C52.2624 10.1701 52.0585 10.2044 52.0585 10.7121V12.6542C52.0585 12.8034 52.0625 12.9526 52.0845 13.0849H51.9202L49.6891 10.635V12.3936C49.6891 12.7648 49.7629 12.8925 50.096 12.8925H50.17V13.0211C49.9836 13.0211 49.7978 13.0044 49.6115 13.0044C49.4166 13.0044 49.2167 13.0211 49.0217 13.0211V12.8925H49.0829C49.3822 12.8925 49.4722 12.6923 49.4722 12.3513V10.5538C49.4722 10.3151 49.2741 10.1701 49.0783 10.1701H49.0217V10.0421C49.1866 10.0421 49.3556 10.059 49.5199 10.059C49.6497 10.059 49.7751 10.0421 49.9054 10.0421L51.8331 12.1799ZM53.2052 12.4109C53.1627 12.5557 53.1102 12.6674 53.1102 12.7435C53.1102 12.8717 53.2927 12.8925 53.4347 12.8925H53.4831V13.0211C53.3097 13.0118 53.1318 13.0045 52.9586 13.0045C52.8022 13.0045 52.6469 13.0118 52.4916 13.0211V12.8925H52.5162C52.6857 12.8925 52.8292 12.7945 52.8932 12.6149L53.5872 10.6569C53.6432 10.4989 53.7216 10.2854 53.7467 10.127C53.8856 10.0807 54.0586 9.99543 54.1416 9.94406C54.154 9.93951 54.1627 9.93514 54.1758 9.93514C54.1888 9.93514 54.1971 9.93514 54.2058 9.94825C54.2189 9.98232 54.2322 10.0208 54.2453 10.0548L55.0418 12.287C55.0937 12.4362 55.1455 12.5939 55.2024 12.7226C55.2544 12.8421 55.3457 12.8925 55.4883 12.8925H55.5147V13.0211C55.3195 13.0118 55.1244 13.0045 54.9162 13.0045C54.7046 13.0045 54.4875 13.0118 54.2666 13.0211V12.8925H54.3145C54.4134 12.8925 54.5835 12.8759 54.5835 12.769C54.5835 12.7138 54.5441 12.5987 54.4958 12.4617L54.3276 11.9668H53.3443L53.2052 12.4109ZM53.8382 10.5201H53.8296L53.4262 11.728H54.2368L53.8382 10.5201ZM56.606 12.6027C56.606 12.7737 56.7264 12.8246 56.865 12.8421C57.0427 12.855 57.2375 12.855 57.4374 12.8333C57.6189 12.8118 57.7748 12.7096 57.8526 12.6027C57.9218 12.5087 57.9606 12.3894 57.987 12.2954H58.1125C58.065 12.5386 58.0042 12.7781 57.9519 13.0211C57.5718 13.0211 57.1893 13.0045 56.8092 13.0045C56.4274 13.0045 56.0468 13.0211 55.6655 13.0211V12.8925H55.7253C55.8819 12.8925 56.0512 12.8717 56.0512 12.6069V10.4137C56.0512 10.1913 55.8819 10.1701 55.7253 10.1701H55.6655V10.0421C55.8946 10.0421 56.1202 10.059 56.3494 10.059C56.5711 10.059 56.7872 10.0421 57.0083 10.0421V10.1701H56.8994C56.7352 10.1701 56.606 10.1749 56.606 10.4006V12.6027Z" fill="#4D4D4D"/>
</svg>
