<svg width="53" height="20" viewBox="0 0 53 20" fill="none" xmlns="http://www.w3.org/2000/svg">
<path d="M8.66884 4.39408C9.41596 4.14624 10.2075 4.0588 10.9912 4.13751C11.7748 4.21623 12.5327 4.45929 13.2148 4.85069C13.8969 5.24209 14.4877 5.77292 14.9481 6.40804C15.4084 7.04315 15.7279 7.7681 15.8854 8.53502L19.7011 7.76192C19.4326 6.45878 18.8891 5.22703 18.1064 4.14796C17.3237 3.0689 16.3196 2.16705 15.1605 1.5019C14.0013 0.836753 12.7134 0.423432 11.3817 0.289223C10.0501 0.155014 8.70486 0.302946 7.43494 0.723287L8.66884 4.39408Z" fill="#4D4D4D"/>
<path d="M4.16664 16.6783L6.74579 13.7807C6.15612 13.2616 5.68402 12.6241 5.36069 11.9102C5.03737 11.1964 4.87017 10.4225 4.87017 9.63967C4.87017 8.85684 5.03737 8.08294 5.36069 7.3691C5.68402 6.65526 6.15612 6.01777 6.74579 5.49872L4.16531 2.60107C3.16228 3.48288 2.35916 4.56635 1.80911 5.77976C1.25905 6.99316 0.974609 8.30882 0.974609 9.63967C0.974609 10.9705 1.25905 12.2862 1.80911 13.4996C2.35916 14.713 3.16228 15.7965 4.16531 16.6783H4.16664Z" fill="#4D4D4D"/>
<path d="M15.8842 10.749C15.7259 11.5155 15.4058 12.2399 14.945 12.8744C14.4842 13.5088 13.8932 14.039 13.211 14.4297C12.5289 14.8204 11.7711 15.0629 10.9877 15.1411C10.2042 15.2194 9.41301 15.1315 8.66627 14.8834L7.43103 18.5528C8.7003 18.9735 10.0449 19.122 11.3761 18.9885C12.7074 18.8551 13.995 18.4427 15.1542 17.7786C16.3133 17.1145 17.3177 16.2138 18.101 15.1358C18.8843 14.0579 19.4288 12.8271 19.6985 11.5248L15.8842 10.749Z" fill="#4D4D4D"/>
<path d="M32.4021 13.3408C31.8583 13.8744 31.1484 14.2087 30.3886 14.2891C29.6287 14.3695 28.8639 14.1912 28.2192 13.7834L26.9562 15.7827C28.0525 16.4698 29.3499 16.7694 30.6387 16.6331C31.9275 16.4969 33.1324 15.9328 34.0588 15.032L32.4021 13.3408Z" fill="#4D4D4D"/>
<path d="M30.1119 5.19594C29.0653 5.18052 28.0342 5.44823 27.1289 5.97038C26.2237 6.49252 25.4783 7.24945 24.9727 8.16019C24.467 9.07092 24.22 10.1012 24.2582 11.1406C24.2964 12.1801 24.6183 13.1897 25.1895 14.0614L35.6426 9.62143C35.3486 8.37687 34.6448 7.26551 33.6428 6.46377C32.6408 5.66203 31.3981 5.21582 30.1119 5.19594ZM26.6474 11.2862C26.6315 11.1512 26.6249 11.0152 26.6275 10.8792C26.6382 10.1919 26.8598 9.52413 27.2626 8.96529C27.6655 8.40645 28.2304 7.98318 28.8819 7.75205C29.5334 7.52092 30.2404 7.49295 30.9083 7.6719C31.5762 7.85085 32.1732 8.22821 32.6195 8.75346L26.6474 11.2862Z" fill="#4D4D4D"/>
<path d="M38.9216 2.61067V13.6849L40.8553 14.4751L39.9408 16.6589L38.0283 15.8686C37.6439 15.7014 37.3165 15.4268 37.086 15.0783C36.8302 14.6662 36.7016 14.1886 36.7162 13.7046V2.6001L38.9216 2.61067Z" fill="#4D4D4D"/>
<path d="M45.8916 7.72697C46.3476 7.57612 46.8306 7.52306 47.3088 7.5713C47.7869 7.61954 48.2493 7.76797 48.6655 8.00681C49.0817 8.24565 49.4422 8.56946 49.7232 8.95689C50.0042 9.34433 50.1994 9.78658 50.2958 10.2545L52.6245 9.78294C52.4607 8.98758 52.1291 8.23577 51.6515 7.57713C51.174 6.91849 50.5612 6.368 49.8538 5.96198C49.1464 5.55596 48.3604 5.30366 47.5477 5.22171C46.7349 5.13976 45.9139 5.23002 45.1389 5.48656L45.8916 7.72697Z" fill="#4D4D4D"/>
<path d="M43.1442 15.2261L44.7173 13.4572C44.3573 13.1405 44.0691 12.7514 43.8717 12.3156C43.6743 11.8799 43.5722 11.4075 43.5722 10.9297C43.5722 10.4518 43.6743 9.97944 43.8717 9.54373C44.0691 9.10801 44.3573 8.71894 44.7173 8.40219L43.1428 6.6333C42.5307 7.17153 42.0407 7.8328 41.705 8.57334C41.3694 9.31389 41.1958 10.1168 41.1958 10.929C41.1958 11.7412 41.3694 12.5442 41.705 13.2847C42.0407 14.0253 42.5307 14.6866 43.1428 15.2248L43.1442 15.2261Z" fill="#4D4D4D"/>
<path d="M50.2957 11.6079C50.199 12.0757 50.0036 12.5178 49.7224 12.905C49.4411 13.2923 49.0804 13.6157 48.6641 13.8542C48.2477 14.0927 47.7852 14.2408 47.3071 14.2885C46.8289 14.3363 46.346 14.2828 45.8902 14.1315L45.1361 16.3706C45.9109 16.6274 46.7316 16.7181 47.5442 16.6366C48.3568 16.5552 49.1428 16.3035 49.8504 15.8981C50.558 15.4928 51.1711 14.943 51.6492 14.285C52.1274 13.627 52.4598 12.8757 52.6244 12.0808L50.2957 11.6079Z" fill="#4D4D4D"/>
</svg>
