<svg width="50" height="16" viewBox="0 0 50 16" fill="none" xmlns="http://www.w3.org/2000/svg">
<path d="M18.0995 15.3353L20.5789 0.786133H24.5929L22.1137 15.3353H18.0995Z" fill="#4D4D4D"/>
<path d="M36.4035 1.1624C35.608 0.867542 34.3617 0.551758 32.8053 0.551758C28.8382 0.551758 26.0438 2.52554 26.0198 5.35333C25.9978 7.44343 28.0145 8.60928 29.5381 9.3058C31.1006 10.0175 31.626 10.4742 31.6184 11.1103C31.6087 12.0855 30.37 12.5313 29.2159 12.5313C27.6094 12.5308 26.7555 12.3106 25.437 11.7677L24.9198 11.5359L24.356 14.7929C25.2939 15.1992 27.0282 15.5515 28.8285 15.5693C33.0478 15.5684 35.788 13.619 35.8187 10.5984C35.8341 8.94355 34.7643 7.68408 32.4482 6.64541C31.0448 5.97322 30.1853 5.52427 30.1946 4.84202C30.1946 4.23749 30.9225 3.59084 32.4937 3.59084C33.8065 3.57046 34.7576 3.85322 35.4989 4.14808L35.8581 4.31589L36.4035 1.1624Z" fill="#4D4D4D"/>
<path d="M43.2474 0.786133C42.2856 0.786133 41.5907 1.078 41.1681 2.02522L35.2191 15.3358H39.4691L40.2953 13.1063H45.3731L45.8449 15.3358H49.6231L46.3177 0.786541H43.2475L43.2474 0.786133ZM41.423 10.1951C41.7545 9.35728 43.0218 6.12864 43.0218 6.12864C42.9988 6.16683 43.3517 5.28674 43.5543 4.74064L43.826 5.9944C43.826 5.9944 44.5939 9.46748 44.7551 10.1955H41.423V10.1951Z" fill="#4D4D4D"/>
<path d="M10.7793 10.7594L10.4257 8.76484C9.69308 6.43981 7.41937 3.92413 4.87152 2.66372L8.41806 15.3353H12.669L19.0443 0.786133H14.7942L10.7793 10.7594Z" fill="#4D4D4D"/>
<path d="M0.507629 0.786133V1.02107C5.54454 2.22496 9.04144 5.26853 10.4258 8.76498L8.97034 2.0278C8.72737 1.10708 7.99107 0.818199 7.11982 0.786268L0.507629 0.786133Z" fill="#4D4D4D"/>
</svg>
