<svg width="45" height="37" viewBox="0 0 45 37" fill="none" xmlns="http://www.w3.org/2000/svg">
<path d="M11.3033 31.6315V29.8373C11.3138 29.6864 11.2918 29.535 11.2389 29.3932C11.1859 29.2514 11.1031 29.1225 10.9961 29.015C10.889 28.9075 10.7601 28.8239 10.618 28.7697C10.4759 28.7156 10.3238 28.6922 10.1719 28.701C9.97299 28.6881 9.77426 28.7284 9.59641 28.8178C9.41857 28.9072 9.26815 29.0425 9.16084 29.2094C9.06302 29.0475 8.92307 28.9148 8.75572 28.8253C8.58837 28.7358 8.39984 28.6929 8.20998 28.701C8.04449 28.6927 7.87969 28.7275 7.7319 28.802C7.58412 28.8765 7.45849 28.988 7.36746 29.1256V28.7728H6.74158V31.6315H7.37347V30.0586C7.36003 29.9608 7.36849 29.8613 7.39824 29.7672C7.42799 29.6731 7.4783 29.5866 7.54557 29.5141C7.61284 29.4415 7.69541 29.3846 7.78738 29.3474C7.87935 29.3103 7.97845 29.2938 8.07759 29.2991C8.49283 29.2991 8.70347 29.5682 8.70347 30.0526V31.6435H9.33536V30.0586C9.32247 29.9609 9.33131 29.8617 9.36127 29.7678C9.39122 29.6739 9.44155 29.5877 9.50871 29.5152C9.57586 29.4428 9.65821 29.3859 9.74992 29.3485C9.84163 29.3112 9.94048 29.2943 10.0395 29.2991C10.4668 29.2991 10.6714 29.5682 10.6714 30.0526V31.6435L11.3033 31.6315ZM20.6523 28.7728H19.6232V27.9056H18.9913V28.7728H18.4196V29.3409H19.0034V30.6567C19.0034 31.3205 19.2622 31.7152 20.0024 31.7152C20.2789 31.7162 20.5501 31.6394 20.7847 31.4939L20.6042 30.9617C20.4363 31.0612 20.2458 31.1167 20.0505 31.1231C19.7496 31.1231 19.6353 30.9318 19.6353 30.6447V29.3409H20.6583L20.6523 28.7728ZM25.9904 28.701C25.8378 28.6966 25.6868 28.7331 25.5533 28.8068C25.4199 28.8804 25.3089 28.9885 25.2321 29.1197V28.7728H24.6122V31.6315H25.2381V30.0287C25.2381 29.5562 25.4427 29.2931 25.8399 29.2931C25.9738 29.2913 26.1067 29.3157 26.2311 29.3649L26.4237 28.7668C26.2807 28.716 26.1301 28.6897 25.9783 28.6891L25.9904 28.701ZM17.9201 29C17.5659 28.7907 17.1585 28.6869 16.7466 28.701C16.0184 28.701 15.543 29.0479 15.543 29.616C15.543 30.0825 15.892 30.3696 16.536 30.4593L16.8369 30.5012C17.1799 30.549 17.3424 30.6387 17.3424 30.8002C17.3424 31.0215 17.1137 31.1471 16.6864 31.1471C16.3427 31.157 16.0057 31.0516 15.7296 30.848L15.4287 31.3325C15.7932 31.5854 16.2299 31.7154 16.6744 31.7033C17.5049 31.7033 17.9863 31.3145 17.9863 30.7703C17.9863 30.2261 17.6072 30.0048 16.9813 29.9151L16.6804 29.8732C16.4096 29.8373 16.1929 29.7835 16.1929 29.5921C16.1929 29.4007 16.3976 29.2572 16.7406 29.2572C17.0576 29.2609 17.3685 29.3453 17.6433 29.5024L17.9201 29ZM34.6834 28.701C34.5308 28.6966 34.3799 28.7331 34.2464 28.8068C34.113 28.8804 34.002 28.9885 33.9252 29.1197V28.7728H33.3053V31.6315H33.9312V30.0287C33.9312 29.5562 34.1358 29.2931 34.533 29.2931C34.6669 29.2913 34.7998 29.3157 34.9242 29.3649L35.1167 28.7668C34.9738 28.716 34.8232 28.6897 34.6714 28.6891L34.6834 28.701ZM26.6192 30.1962C26.6118 30.3971 26.6466 30.5973 26.7215 30.784C26.7964 30.9708 26.9097 31.1399 27.0542 31.2807C27.1986 31.4214 27.371 31.5306 27.5604 31.6013C27.7498 31.672 27.9519 31.7027 28.1538 31.6913C28.5296 31.7103 28.899 31.5887 29.189 31.3504L28.888 30.848C28.6717 31.012 28.4079 31.1022 28.1358 31.1052C27.9044 31.0866 27.6886 30.9821 27.5313 30.8126C27.3739 30.643 27.2865 30.4208 27.2865 30.1902C27.2865 29.9595 27.3739 29.7373 27.5313 29.5678C27.6886 29.3982 27.9044 29.2938 28.1358 29.2752C28.4079 29.2782 28.6717 29.3684 28.888 29.5323L29.189 29.0299C28.899 28.7917 28.5296 28.6701 28.1538 28.6891C27.9519 28.6777 27.7498 28.7083 27.5604 28.779C27.371 28.8498 27.1986 28.959 27.0542 29.0997C26.9097 29.2404 26.7964 29.4096 26.7215 29.5963C26.6466 29.7831 26.6118 29.9833 26.6192 30.1842V30.1962ZM32.4808 30.1962V28.7728H31.855V29.1197C31.7487 28.9837 31.6114 28.8749 31.4544 28.8021C31.2975 28.7293 31.1253 28.6947 30.9522 28.701C30.5532 28.701 30.1705 28.8585 29.8884 29.1389C29.6062 29.4193 29.4477 29.7996 29.4477 30.1962C29.4477 30.5927 29.6062 30.973 29.8884 31.2534C30.1705 31.5338 30.5532 31.6913 30.9522 31.6913C31.1253 31.6976 31.2975 31.663 31.4544 31.5902C31.6114 31.5174 31.7487 31.4086 31.855 31.2727V31.6195H32.4808V30.1962ZM30.1518 30.1962C30.1618 30.0279 30.2211 29.8662 30.3224 29.731C30.4237 29.5958 30.5625 29.4929 30.7219 29.4352C30.8812 29.3774 31.0541 29.3672 31.2192 29.4058C31.3843 29.4444 31.5345 29.5302 31.6511 29.6525C31.7678 29.7749 31.8459 29.9285 31.8759 30.0944C31.9058 30.2603 31.8863 30.4313 31.8197 30.5863C31.7531 30.7414 31.6423 30.8737 31.501 30.9669C31.3597 31.0602 31.1941 31.1103 31.0245 31.1112C30.9053 31.1127 30.7872 31.0897 30.6774 31.0436C30.5676 30.9975 30.4687 30.9293 30.3867 30.8434C30.3048 30.7574 30.2416 30.6556 30.2012 30.5442C30.1607 30.4328 30.1439 30.3143 30.1518 30.1962ZM22.5992 28.701C22.2001 28.7066 21.8197 28.8694 21.5415 29.1537C21.2633 29.4381 21.1101 29.8206 21.1157 30.2171C21.1213 30.6136 21.2852 30.9917 21.5713 31.2682C21.8574 31.5447 22.2423 31.6969 22.6413 31.6913C23.0742 31.7134 23.5 31.5748 23.8359 31.3026L23.535 30.8421C23.2974 31.0314 23.003 31.1367 22.6985 31.1411C22.4916 31.1588 22.2859 31.0956 22.1252 30.9649C21.9645 30.8342 21.8614 30.6464 21.8379 30.4414H23.9743C23.9743 30.3636 23.9743 30.2859 23.9743 30.2021C23.9743 29.3051 23.4146 28.707 22.6082 28.707L22.5992 28.701ZM22.5992 29.2572C22.6928 29.2552 22.786 29.2716 22.8732 29.3054C22.9605 29.3392 23.0403 29.3897 23.1079 29.4542C23.1755 29.5186 23.2297 29.5956 23.2674 29.6809C23.305 29.7661 23.3254 29.8579 23.3274 29.951H21.8228C21.8337 29.759 21.9198 29.5789 22.0627 29.4492C22.2055 29.3196 22.3938 29.2507 22.5871 29.2572H22.5992ZM38.2792 30.2021V27.6245H37.6774V29.1197C37.5711 28.9837 37.4339 28.8749 37.2769 28.8021C37.1199 28.7293 36.9478 28.6947 36.7747 28.701C36.3757 28.701 35.993 28.8585 35.7109 29.1389C35.4287 29.4193 35.2702 29.7996 35.2702 30.1962C35.2702 30.5927 35.4287 30.973 35.7109 31.2534C35.993 31.5338 36.3757 31.6913 36.7747 31.6913C36.9478 31.6976 37.1199 31.663 37.2769 31.5902C37.4339 31.5174 37.5711 31.4086 37.6774 31.2727V31.6195H38.2792V30.2021ZM39.3234 31.2158C39.3625 31.2154 39.4013 31.2225 39.4377 31.2368C39.4723 31.2508 39.5039 31.2711 39.531 31.2966C39.5574 31.3224 39.5789 31.3528 39.5942 31.3863C39.6094 31.4212 39.6173 31.4589 39.6173 31.4969C39.6173 31.535 39.6094 31.5727 39.5942 31.6076C39.5789 31.6411 39.5574 31.6715 39.531 31.6973C39.5039 31.7228 39.4723 31.7431 39.4377 31.7571C39.4017 31.7729 39.3627 31.781 39.3234 31.781C39.2663 31.7806 39.2106 31.7641 39.1626 31.7333C39.1147 31.7026 39.0765 31.659 39.0526 31.6076C39.0375 31.5726 39.0297 31.535 39.0297 31.4969C39.0297 31.4589 39.0375 31.4213 39.0526 31.3863C39.0679 31.3528 39.0893 31.3224 39.1157 31.2966C39.1428 31.2711 39.1745 31.2508 39.209 31.2368C39.2482 31.2213 39.2902 31.2142 39.3324 31.2158H39.3234ZM39.3234 31.7212C39.3534 31.7214 39.3831 31.7153 39.4106 31.7033C39.4365 31.6918 39.46 31.6755 39.4798 31.6554C39.5175 31.6146 39.5384 31.5613 39.5384 31.5059C39.5384 31.4505 39.5175 31.3972 39.4798 31.3564C39.46 31.3362 39.4366 31.32 39.4106 31.3085C39.3831 31.2966 39.3534 31.2905 39.3234 31.2906C39.2934 31.2908 39.2637 31.2969 39.2361 31.3085C39.2091 31.3196 39.1845 31.3358 39.1639 31.3564C39.1263 31.3972 39.1054 31.4505 39.1054 31.5059C39.1054 31.5613 39.1263 31.6146 39.1639 31.6554C39.1846 31.6759 39.2091 31.6922 39.2361 31.7033C39.2665 31.7163 39.2994 31.7224 39.3324 31.7212H39.3234ZM39.3414 31.3654C39.3695 31.364 39.3972 31.3725 39.4197 31.3893C39.4289 31.3969 39.4361 31.4065 39.4408 31.4174C39.4455 31.4284 39.4476 31.4402 39.4467 31.4521C39.4472 31.462 39.4455 31.4719 39.4419 31.4812C39.4383 31.4905 39.4327 31.4989 39.4257 31.5059C39.4082 31.5216 39.386 31.5311 39.3625 31.5328L39.4497 31.6315H39.3805L39.2993 31.5328H39.2722V31.6315H39.215V31.3684L39.3414 31.3654ZM39.2752 31.4162V31.488H39.3414C39.3532 31.4915 39.3657 31.4915 39.3775 31.488C39.3796 31.4838 39.3807 31.4792 39.3807 31.4745C39.3807 31.4698 39.3796 31.4652 39.3775 31.4611C39.3796 31.4569 39.3807 31.4523 39.3807 31.4476C39.3807 31.4429 39.3796 31.4383 39.3775 31.4341C39.3657 31.4306 39.3532 31.4306 39.3414 31.4341L39.2752 31.4162ZM35.9653 30.2021C35.9753 30.0339 36.0346 29.8722 36.1358 29.737C36.2371 29.6017 36.376 29.4989 36.5353 29.4411C36.6947 29.3834 36.8675 29.3732 37.0327 29.4118C37.1978 29.4504 37.3479 29.5362 37.4646 29.6585C37.5813 29.7809 37.6594 29.9345 37.6893 30.1004C37.7193 30.2663 37.6998 30.4373 37.6332 30.5923C37.5666 30.7473 37.4558 30.8796 37.3145 30.9729C37.1732 31.0661 37.0075 31.1163 36.8379 31.1172C36.7188 31.1187 36.6006 31.0956 36.4909 31.0496C36.3811 31.0035 36.2821 30.9353 36.2002 30.8494C36.1182 30.7634 36.055 30.6616 36.0146 30.5502C35.9742 30.4388 35.9574 30.3203 35.9653 30.2021ZM14.8329 30.2021V28.7728H14.207V29.1197C14.1007 28.9837 13.9634 28.8749 13.8064 28.8021C13.6495 28.7293 13.4774 28.6947 13.3043 28.701C12.9053 28.701 12.5226 28.8585 12.2404 29.1389C11.9583 29.4193 11.7998 29.7996 11.7998 30.1962C11.7998 30.5927 11.9583 30.973 12.2404 31.2534C12.5226 31.5338 12.9053 31.6913 13.3043 31.6913C13.4774 31.6976 13.6495 31.663 13.8064 31.5902C13.9634 31.5174 14.1007 31.4086 14.207 31.2727V31.6195H14.8329V30.2021ZM12.5039 30.2021C12.5139 30.0339 12.5731 29.8722 12.6744 29.737C12.7757 29.6017 12.9146 29.4989 13.0739 29.4411C13.2333 29.3834 13.4061 29.3732 13.5712 29.4118C13.7363 29.4504 13.8865 29.5362 14.0032 29.6585C14.1198 29.7809 14.198 29.9345 14.2279 30.1004C14.2579 30.2663 14.2383 30.4373 14.1717 30.5923C14.1051 30.7473 13.9944 30.8796 13.8531 30.9729C13.7118 31.0661 13.5461 31.1163 13.3765 31.1172C13.2568 31.1195 13.138 31.0971 13.0276 31.0514C12.9171 31.0057 12.8174 30.9376 12.7348 30.8516C12.6522 30.7656 12.5884 30.6634 12.5476 30.5516C12.5069 30.4398 12.4899 30.3208 12.4979 30.2021H12.5039Z" fill="#4D4D4D"/>
<path d="M17.7625 23.8653V7.0373H27.141V23.8653H17.7625Z" fill="#4D4D4D" stroke="white" stroke-width="0.1"/>
<path d="M18.2144 15.4545C18.2126 13.8088 18.5877 12.1842 19.3112 10.7039C20.0159 9.26197 21.0332 7.99374 22.2893 6.98993C20.7264 5.79897 18.8631 5.05777 16.9031 4.84884C14.9007 4.63538 12.8783 4.98608 11.067 5.8608C9.25577 6.73553 7.72879 8.09897 6.66052 9.79521C5.59225 11.4914 5.02578 13.4521 5.02578 15.453C5.02578 17.454 5.59225 19.4146 6.66052 21.1109C7.72879 22.8071 9.25577 24.1705 11.067 25.0453C12.8783 25.92 14.9007 26.2707 16.9031 26.0572C18.8631 25.8483 20.7264 25.1071 22.2893 23.9161C21.0336 22.9126 20.0166 21.6449 19.3119 20.2036C18.5884 18.7238 18.2131 17.0998 18.2144 15.4545ZM18.2144 15.4545C18.2144 15.4545 18.2144 15.4545 18.2144 15.4545L18.3144 15.4545L18.2144 15.4546C18.2144 15.4546 18.2144 15.4546 18.2144 15.4545ZM22.4518 23.917C22.4247 23.8959 22.3978 23.8747 22.3709 23.8533L22.3702 23.9802C22.3975 23.9593 22.4247 23.9382 22.4518 23.917Z" fill="#4D4D4D" stroke="white" stroke-width="0.2"/>
<path d="M39.8793 15.4528C39.8793 17.4539 39.3127 19.4147 38.2442 21.111C37.1758 22.8073 35.6486 24.1707 33.8371 25.0453C32.0256 25.9199 30.003 26.2704 28.0005 26.0566C26.0403 25.8474 24.177 25.1058 22.6142 23.9144C23.8694 22.9101 24.8861 21.642 25.591 20.2005C26.3147 18.7207 26.6907 17.0968 26.6907 15.4513C26.6907 13.8059 26.3147 12.182 25.591 10.7022C24.8861 9.26071 23.8694 7.99262 22.6142 6.98828C24.177 5.7969 26.0403 5.05532 28.0005 4.84607C30.003 4.63231 32.0256 4.98278 33.8371 5.85738C35.6486 6.73198 37.1758 8.0954 38.2442 9.7917C39.3127 11.488 39.8793 13.4488 39.8793 15.4499V15.4528Z" fill="#4D4D4D" stroke="white" stroke-width="0.2"/>
<path d="M38.9443 22.1213V21.7744H39.0857V21.7026H38.7277V21.7744H38.8811V22.1213H38.9443ZM39.6394 22.1213V21.7026H39.5311L39.4047 22.0017L39.2783 21.7026H39.182V22.1213H39.2603V21.8073L39.3776 22.0794H39.4589L39.5762 21.8073V22.1243L39.6394 22.1213Z" fill="#4D4D4D"/>
</svg>
