<svg width="35" height="26" viewBox="0 0 35 26" fill="none" xmlns="http://www.w3.org/2000/svg">
<path d="M5.85676 5.24854C5.24018 5.24854 4.74023 5.7453 4.74023 6.3581V19.6726C4.74023 20.2854 5.24011 20.7822 5.85676 20.7822C6.4734 20.7822 6.97328 20.2854 6.97328 19.6726V6.3581C6.97328 5.74537 6.4734 5.24854 5.85676 5.24854Z" fill="#4D4D4D"/>
<path d="M14.7888 5.24854C14.1722 5.24854 13.6722 5.7453 13.6722 6.3581V15.2344C13.6722 15.8472 14.1721 16.344 14.7888 16.344C15.4053 16.344 15.9053 15.8472 15.9053 15.2344V6.3581C15.9053 5.74537 15.4054 5.24854 14.7888 5.24854Z" fill="#4D4D4D"/>
<path d="M24.465 5.24854C23.8485 5.24854 23.3485 5.7453 23.3485 6.3581V15.2344C23.3485 15.8472 23.8484 16.344 24.465 16.344C25.0817 16.344 25.5816 15.8472 25.5816 15.2344V6.3581C25.5816 5.74537 25.0817 5.24854 24.465 5.24854Z" fill="#4D4D4D"/>
<path d="M28.931 5.24854C28.3144 5.24854 27.8145 5.7453 27.8145 6.3581V19.6726C27.8145 20.2854 28.3143 20.7822 28.931 20.7822C29.5476 20.7822 30.0475 20.2854 30.0475 19.6726V6.3581C30.0474 5.74537 29.5475 5.24854 28.931 5.24854Z" fill="#4D4D4D"/>
<path d="M14.7888 20.7821C15.4054 20.7821 15.9053 20.2854 15.9053 19.6726C15.9053 19.0598 15.4054 18.563 14.7888 18.563C14.1721 18.563 13.6722 19.0598 13.6722 19.6726C13.6722 20.2854 14.1721 20.7821 14.7888 20.7821Z" fill="#4D4D4D"/>
<path d="M19.2547 5.24854C18.6381 5.24854 18.1382 5.7453 18.1382 6.3581V15.2344C18.1382 15.8472 18.6381 16.344 19.2547 16.344C19.8713 16.344 20.3712 15.8472 20.3712 15.2344V6.3581C20.3712 5.74537 19.8713 5.24854 19.2547 5.24854Z" fill="#4D4D4D"/>
<path d="M19.2547 20.7821C19.8713 20.7821 20.3712 20.2854 20.3712 19.6726C20.3712 19.0598 19.8713 18.563 19.2547 18.563C18.6381 18.563 18.1382 19.0598 18.1382 19.6726C18.1382 20.2854 18.6381 20.7821 19.2547 20.7821Z" fill="#4D4D4D"/>
<path d="M10.3227 5.24854C9.70612 5.24854 9.20618 5.7453 9.20618 6.3581V15.2344C9.20618 15.8472 9.70606 16.344 10.3227 16.344C10.9393 16.344 11.4392 15.8472 11.4392 15.2344V6.3581C11.4392 5.74537 10.9393 5.24854 10.3227 5.24854Z" fill="#4D4D4D"/>
<path d="M10.3227 20.7821C10.9393 20.7821 11.4392 20.2854 11.4392 19.6726C11.4392 19.0598 10.9393 18.563 10.3227 18.563C9.70606 18.563 9.20618 19.0598 9.20618 19.6726C9.20618 20.2854 9.70606 20.7821 10.3227 20.7821Z" fill="#4D4D4D"/>
<path d="M24.465 20.7821C25.0817 20.7821 25.5816 20.2854 25.5816 19.6726C25.5816 19.0598 25.0817 18.563 24.465 18.563C23.8484 18.563 23.3485 19.0598 23.3485 19.6726C23.3485 20.2854 23.8484 20.7821 24.465 20.7821Z" fill="#4D4D4D"/>
<path d="M31.1639 0.810059H3.62367C1.77675 0.810059 0.27417 2.30328 0.27417 4.13869V21.8914C0.27417 23.7268 1.77675 25.22 3.62367 25.22H31.1639C33.0109 25.22 34.5134 23.7268 34.5134 21.8914V4.13869C34.5134 2.30328 33.0109 0.810059 31.1639 0.810059ZM32.2805 21.8914C32.2805 22.5032 31.7796 23.0009 31.1639 23.0009H3.62367C3.00803 23.0009 2.50715 22.5032 2.50715 21.8914V4.13869C2.50715 3.52689 3.00803 3.02913 3.62367 3.02913H31.1639C31.7796 3.02913 32.2805 3.52689 32.2805 4.13869V21.8914Z" fill="#4D4D4D"/>
</svg>
